<svg width="24" height="25" viewBox="0 0 24 25" fill="none" xmlns="http://www.w3.org/2000/svg">
<g id="cart">
<path id="Vector" d="M2.88 4.22012C2.88 4.06099 2.94322 3.90837 3.05574 3.79585C3.16826 3.68333 3.32087 3.62012 3.48 3.62012H5.28C5.41387 3.62017 5.54387 3.66498 5.64933 3.74743C5.75479 3.82987 5.82965 3.94522 5.862 4.07512L6.348 6.02012H20.28C20.3681 6.02009 20.4552 6.03948 20.535 6.0769C20.6148 6.11433 20.6853 6.16887 20.7416 6.23665C20.798 6.30443 20.8387 6.38378 20.8609 6.46907C20.883 6.55436 20.8862 6.64348 20.87 6.73012L19.07 16.3301C19.0443 16.4678 18.9713 16.5922 18.8635 16.6817C18.7558 16.7712 18.6201 16.8202 18.48 16.8201H7.68C7.53993 16.8202 7.40425 16.7712 7.29649 16.6817C7.18874 16.5922 7.11569 16.4678 7.09 16.3301L5.293 6.75012L4.813 4.82112H3.48C3.32087 4.82112 3.16826 4.7579 3.05574 4.64538C2.94322 4.53286 2.88 4.38025 2.88 4.22112V4.22012ZM6.60201 7.22012L8.17801 15.6201H17.982L19.558 7.22012H6.60201ZM8.88 16.8201C8.56483 16.8201 8.25275 16.8822 7.96156 17.0028C7.67038 17.1234 7.40581 17.3002 7.18295 17.5231C6.96009 17.7459 6.78331 18.0105 6.66269 18.3017C6.54208 18.5929 6.48 18.9049 6.48 19.2201C6.48 19.5353 6.54208 19.8474 6.66269 20.1386C6.78331 20.4297 6.96009 20.6943 7.18295 20.9172C7.40581 21.14 7.67038 21.3168 7.96156 21.4374C8.25275 21.558 8.56483 21.6201 8.88 21.6201C9.51652 21.6201 10.127 21.3673 10.5771 20.9172C11.0271 20.4671 11.28 19.8566 11.28 19.2201C11.28 18.5836 11.0271 17.9731 10.5771 17.5231C10.127 17.073 9.51652 16.8201 8.88 16.8201ZM17.28 16.8201C16.9648 16.8201 16.6526 16.8822 16.3614 17.0028C16.0701 17.1235 15.8055 17.3003 15.5826 17.5232C15.3597 17.7461 15.1829 18.0107 15.0622 18.302C14.9416 18.5932 14.8795 18.9054 14.8795 19.2206C14.8795 19.5359 14.9416 19.848 15.0622 20.1392C15.1829 20.4305 15.3597 20.6951 15.5826 20.918C15.8055 21.1409 16.0701 21.3178 16.3614 21.4384C16.6526 21.559 16.9648 21.6211 17.28 21.6211C17.9165 21.6211 18.527 21.3683 18.9771 20.9182C19.4271 20.4681 19.68 19.8576 19.68 19.2211C19.68 18.5846 19.4271 17.9741 18.9771 17.5241C18.527 17.074 17.9165 16.8211 17.28 16.8211V16.8201ZM8.88 18.0201C9.03759 18.0201 9.19363 18.0512 9.33922 18.1115C9.48482 18.1718 9.6171 18.2602 9.72853 18.3716C9.83996 18.483 9.92835 18.6153 9.98866 18.7609C10.049 18.9065 10.08 19.0625 10.08 19.2201C10.08 19.3777 10.049 19.5337 9.98866 19.6793C9.92835 19.8249 9.83996 19.9572 9.72853 20.0686C9.6171 20.1801 9.48482 20.2685 9.33922 20.3288C9.19363 20.3891 9.03759 20.4201 8.88 20.4201C8.56175 20.4201 8.25652 20.2937 8.03148 20.0686C7.80643 19.8436 7.68 19.5384 7.68 19.2201C7.68 18.9019 7.80643 18.5966 8.03148 18.3716C8.25652 18.1465 8.56175 18.0201 8.88 18.0201ZM17.28 18.0201C17.4376 18.0201 17.5936 18.0512 17.7392 18.1115C17.8848 18.1718 18.0171 18.2602 18.1285 18.3716C18.24 18.483 18.3284 18.6153 18.3887 18.7609C18.449 18.9065 18.48 19.0625 18.48 19.2201C18.48 19.3777 18.449 19.5337 18.3887 19.6793C18.3284 19.8249 18.24 19.9572 18.1285 20.0686C18.0171 20.1801 17.8848 20.2685 17.7392 20.3288C17.5936 20.3891 17.4376 20.4201 17.28 20.4201C16.9617 20.4201 16.6565 20.2937 16.4315 20.0686C16.2064 19.8436 16.08 19.5384 16.08 19.2201C16.08 18.9019 16.2064 18.5966 16.4315 18.3716C16.6565 18.1465 16.9617 18.0201 17.28 18.0201Z" fill="white"/>
</g>
</svg>
