<svg width="24" height="25" viewBox="0 0 24 25" fill="none" xmlns="http://www.w3.org/2000/svg">
<g id="user">
<path id="Vector" d="M12 12.5C12.9548 12.5 13.8704 12.1208 14.5456 11.4456C15.2207 10.7705 15.6 9.85483 15.6 8.90005C15.6 7.94527 15.2207 7.02959 14.5456 6.35446C13.8704 5.67933 12.9548 5.30005 12 5.30005C11.0452 5.30005 10.1295 5.67933 9.4544 6.35446C8.77927 7.02959 8.39999 7.94527 8.39999 8.90005C8.39999 9.85483 8.77927 10.7705 9.4544 11.4456C10.1295 12.1208 11.0452 12.5 12 12.5ZM14.4 8.90005C14.4 9.21529 14.3379 9.52744 14.2173 9.81868C14.0966 10.1099 13.9198 10.3746 13.6969 10.5975C13.474 10.8204 13.2094 10.9972 12.9181 11.1178C12.6269 11.2385 12.3147 11.3005 11.9995 11.3005C11.6842 11.3005 11.3721 11.2385 11.0809 11.1178C10.7896 10.9972 10.525 10.8204 10.3021 10.5975C10.0792 10.3746 9.90235 10.1099 9.78171 9.81868C9.66108 9.52744 9.59899 9.21529 9.59899 8.90005C9.59899 8.26353 9.85184 7.65308 10.3019 7.20299C10.752 6.75291 11.3625 6.50005 11.999 6.50005C12.6355 6.50005 13.246 6.75291 13.696 7.20299C14.1461 7.65308 14.399 8.26353 14.399 8.90005H14.4ZM19.2 18.5C19.2 19.7 18 19.7 18 19.7H5.99999C5.99999 19.7 4.79999 19.7 4.79999 18.5C4.79999 17.3 5.99999 13.7 12 13.7C18 13.7 19.2 17.3 19.2 18.5ZM18 18.495C17.999 18.2 17.815 17.312 17.001 16.498C16.22 15.716 14.747 14.9 12 14.9C9.25199 14.9 7.77999 15.716 6.99799 16.498C6.18499 17.312 6.00199 18.2 5.99999 18.495H18Z" fill="white"/>
</g>
</svg>
