<svg width="10" height="5" viewBox="0 0 10 5" fill="none" xmlns="http://www.w3.org/2000/svg">
<path id="Vector" d="M8.31689 0.416701L8.31689 0.416696C8.392 0.341583 8.49388 0.299386 8.6001 0.299386C8.70633 0.299386 8.8082 0.341584 8.88331 0.416696C8.95842 0.491808 9.00062 0.593682 9.00062 0.699907C9.00062 0.806131 8.95842 0.908005 8.88331 0.983117L5.28343 4.58299L5.28331 4.58312L5.2126 4.51241C5.18473 4.54037 5.15161 4.56257 5.11515 4.57771C5.07868 4.59285 5.03959 4.60064 5.0001 4.60064C4.96062 4.60064 4.92152 4.59285 4.88506 4.57771C4.84859 4.56257 4.81547 4.54037 4.7876 4.51241L8.31689 0.416701ZM8.31689 0.416701L5.0001 3.73397L8.31689 0.416701ZM1.02995 0.853301C1.05012 0.901896 1.07969 0.946031 1.11695 0.98318L1.68344 0.416819L1.6126 0.487406L1.68332 0.416701L1.68337 0.416753C1.64622 0.379493 1.60209 0.349928 1.5535 0.329751C1.50488 0.309563 1.45275 0.29917 1.4001 0.29917C1.34746 0.29917 1.29533 0.309563 1.24671 0.329751C1.19814 0.349918 1.15403 0.379463 1.11689 0.416696C1.07966 0.453832 1.05011 0.497945 1.02995 0.546513C1.00976 0.595133 0.999365 0.647261 0.999365 0.699907C0.999365 0.752552 1.00976 0.80468 1.02995 0.853301Z" fill="white" stroke="white" stroke-width="0.2"/>
</svg>
