  <svg xmlns="http://www.w3.org/2000/svg" width="24" height="24" viewBox="0 0 24 24" fill="none">
                            <g clip-path="url(#clip0_360_8743)">
                                <path
                                    d="M18.6131 0H5.38691C2.4118 0 0 2.4118 0 5.38691V18.6131C0 21.5882 2.4118 24 5.38691 24H18.6131C21.5882 24 24 21.5882 24 18.6131V5.38691C24 2.4118 21.5882 0 18.6131 0Z"
                                    fill="#3F3F3F" />
                                <path
                                    d="M8.31312 4.15674H15.7949C15.9612 4.23987 16.2106 4.23987 16.3769 4.323C17.1064 4.44124 17.7886 4.76062 18.3466 5.24524C18.9047 5.72986 19.3165 6.36052 19.5358 7.06633C19.6586 7.47307 19.7421 7.89063 19.7852 8.3133V15.6289C19.6664 16.556 19.324 17.4404 18.7877 18.2059C18.3275 18.7391 17.7506 19.1589 17.1018 19.4329C16.453 19.7068 15.7498 19.8274 15.0468 19.7854H8.81191C7.69923 19.8394 6.60523 19.4846 5.73605 18.7878C5.2075 18.3312 4.7904 17.7597 4.51664 17.1171C4.24287 16.4744 4.11971 15.7777 4.15656 15.0802V9.261C4.14282 8.84361 4.17067 8.4259 4.23969 8.01403C4.32363 7.16176 4.67406 6.35762 5.24116 5.7159C5.80826 5.07418 6.5632 4.62751 7.39867 4.43938L8.31312 4.15674ZM5.73605 12.0542V15.2963C5.70061 15.7092 5.75584 16.1248 5.89788 16.5141C6.03992 16.9034 6.26534 17.2569 6.55835 17.5499C6.85136 17.8429 7.20488 18.0683 7.59415 18.2104C7.98343 18.3524 8.39905 18.4076 8.81191 18.3722C10.9733 18.4553 13.1347 18.4553 15.2961 18.3722C17.2082 18.3722 18.2889 17.2083 18.372 15.2963C18.4551 13.1349 18.4551 10.9735 18.372 8.81209C18.3935 8.40249 18.3287 7.99294 18.1818 7.61C18.0348 7.22706 17.809 6.8793 17.519 6.58927C17.2289 6.29923 16.8812 6.07341 16.4982 5.92646C16.1153 5.7795 15.7057 5.71469 15.2961 5.73623C13.1347 5.6531 10.9733 5.6531 8.81191 5.73623C8.39905 5.70079 7.98343 5.75602 7.59415 5.89806C7.20488 6.04011 6.85136 6.26552 6.55835 6.55853C6.26534 6.85154 6.03992 7.20506 5.89788 7.59434C5.75584 7.98361 5.70061 8.39923 5.73605 8.81209V12.0542Z"
                                    fill="white" />
                                <path
                                    d="M8.01385 12.0876C8.01605 11.0079 8.44592 9.97311 9.20936 9.20967C9.9728 8.44623 11.0076 8.01636 12.0873 8.01416C13.161 8.03543 14.1848 8.47142 14.9441 9.23077C15.7035 9.99013 16.1395 11.0139 16.1607 12.0876C16.1585 13.1673 15.7287 14.2021 14.9652 14.9655C14.2018 15.729 13.167 16.1588 12.0873 16.161C11.0136 16.1398 9.98982 15.7038 9.23047 14.9444C8.47111 14.1851 8.03512 13.1613 8.01385 12.0876ZM12.0873 9.51052C11.5824 9.50231 11.0865 9.64506 10.6632 9.92047C10.24 10.1959 9.90856 10.5914 9.71152 11.0564C9.51449 11.5213 9.46078 12.0345 9.55728 12.5302C9.65379 13.0259 9.89611 13.4815 10.2532 13.8386C10.6103 14.1956 11.0658 14.438 11.5615 14.5345C12.0572 14.631 12.5704 14.5773 13.0354 14.3802C13.5003 14.1832 13.8959 13.8518 14.1713 13.4285C14.4467 13.0053 14.5894 12.5094 14.5812 12.0045C14.5812 11.343 14.3185 10.7087 13.8508 10.241C13.3831 9.77328 12.7487 9.51052 12.0873 9.51052Z"
                                    fill="white" />
                                <path
                                    d="M15.2463 7.84778C15.2416 7.71552 15.2642 7.58373 15.3127 7.4606C15.3612 7.33746 15.4345 7.22563 15.5281 7.13205C15.6217 7.03848 15.7335 6.96516 15.8567 6.91667C15.9798 6.86819 16.1116 6.84556 16.2438 6.8502C16.5026 6.86771 16.7463 6.97843 16.9298 7.16186C17.1132 7.34528 17.2239 7.58897 17.2414 7.84778C17.2414 8.11235 17.1363 8.36609 16.9492 8.55317C16.7621 8.74025 16.5084 8.84536 16.2438 8.84536C15.9793 8.84536 15.7255 8.74025 15.5384 8.55317C15.3514 8.36609 15.2463 8.11235 15.2463 7.84778Z"
                                    fill="white" />
                            </g>
                            <defs>
                                <clipPath id="clip0_360_8743">
                                    <rect width="24" height="24" fill="white" />
                                </clipPath>
                            </defs>
                        </svg>