 <svg width="72" height="41" viewBox="0 0 72 41" fill="none" xmlns="http://www.w3.org/2000/svg">
                    <path
                        d="M33.5177 13.8269C33.272 15.441 33.2966 16.1637 33.3457 17.6332C33.5423 22.9814 26.0474 25.246 23.1723 20.1387C22.4106 18.8137 21.9928 17.1273 21.7962 15.3205C21.9437 15.2964 22.0911 15.2964 22.2631 15.2723C22.4843 15.2482 22.73 15.2241 22.9512 15.2001C23.1232 16.8623 23.5164 18.4041 24.1798 19.5846C26.4897 23.656 32.3628 21.8491 32.2153 17.6814C32.1662 16.2601 32.1416 15.4169 32.3382 13.8751L33.5177 13.8269ZM21.7225 13.9955C21.5259 10.936 22.1894 6.76823 23.3443 3.9496L24.401 4.35914C23.2461 7.20187 22.73 10.8878 22.8529 13.9473L21.7225 13.9955ZM28.7505 12.526C28.7259 11.731 28.7259 11.0323 29.0208 10.2855C29.93 7.9246 33.1491 7.85232 33.8372 10.406C34.0092 11.0805 33.9846 11.8032 33.788 12.4778C33.3949 12.4778 32.9771 12.4778 32.5839 12.4778C32.8051 11.9237 32.8788 11.2732 32.7314 10.6951C32.3382 9.17732 30.6181 9.37005 30.102 10.6951C29.8809 11.2973 29.8809 11.8755 29.9054 12.5019C29.5123 12.5019 29.1437 12.5019 28.7505 12.526ZM26.6618 12.6223C26.4406 9.2496 27.4972 4.7446 29.1191 1.75732L30.1266 2.28732C28.6276 5.08187 27.5955 9.39414 27.8167 12.5501C27.4235 12.5741 27.0549 12.5982 26.6618 12.6223ZM24.1553 12.7669C24.0815 9.75551 24.9662 5.85278 25.9737 2.98596L27.0549 3.34732C26.0966 5.97323 25.2365 9.85187 25.2856 12.6705C24.917 12.7187 24.5484 12.7428 24.1553 12.7669Z"
                        fill="#AF9778" />
                    <path
                        d="M15.5546 14.4051C16.6358 14.2364 17.7416 14.0678 18.8228 13.9232C19.9286 13.7787 21.0099 13.6582 22.0911 13.5378C23.1723 13.4414 24.2781 13.3451 25.3839 13.2728C26.5143 13.2005 27.6201 13.1523 28.6767 13.1042C29.7334 13.056 30.8392 13.056 31.9696 13.056C32.9771 13.056 33.96 13.056 34.943 13.0801L34.6235 13.6342L36.3928 17.296L34.8938 14.2123C33.9109 14.1882 32.9279 14.1642 31.9696 14.1882C30.9129 14.1882 29.8317 14.2123 28.7013 14.2605C27.5709 14.3087 26.4897 14.3569 25.4331 14.4292C24.3518 14.5014 23.2706 14.5978 22.1894 14.6942C21.1082 14.7905 20.0269 14.9351 18.9457 15.0555C17.8645 15.2001 16.7832 15.3687 15.7266 15.5373L15.5546 14.4051ZM50.3259 11.5864L50.5962 11.6346C51.1368 11.731 51.702 11.8273 52.2672 11.9478C52.8324 12.0442 53.373 12.1646 53.9382 12.2851C54.5034 12.4055 55.044 12.526 55.6092 12.6464L55.3634 13.7546C54.8228 13.6342 54.2576 13.5137 53.717 13.3932C53.1764 13.2728 52.6112 13.1764 52.0706 13.056C51.53 12.9596 50.9648 12.8392 50.4242 12.7428C49.9573 12.6705 49.4658 12.5742 48.9989 12.5019L50.3259 11.5864ZM46.6399 14.0678C47.2542 14.1642 47.844 14.2364 48.4337 14.3328C49.515 14.5014 50.5962 14.6942 51.6774 14.911C52.7587 15.1278 53.8399 15.3446 54.8965 15.5855L54.6508 16.6937C53.5942 16.4528 52.5129 16.236 51.4563 16.0192C50.3996 15.8023 49.3184 15.6337 48.2372 15.4651C47.6228 15.3687 47.0085 15.2723 46.3942 15.2001L45.9027 14.5737L46.4679 14.1882L46.6399 14.0678ZM48.1634 17.3442C48.6058 17.4164 49.0727 17.4887 49.515 17.561C50.031 17.6573 50.5471 17.7537 51.0877 17.8501C51.6037 17.9464 52.1198 18.0669 52.6604 18.1632C53.1764 18.2837 53.717 18.3801 54.2331 18.5005L53.9873 19.6087C53.4713 19.4882 52.9552 19.3678 52.4392 19.2714C51.9232 19.1751 51.4071 19.0546 50.8911 18.9582C50.375 18.8619 49.859 18.7655 49.343 18.6692L49.2447 18.6451L48.1634 17.3442Z"
                        fill="#AF9778" />
                    <path
                        d="M34.9452 13.0799L36.739 10.1167L37.0831 10.1408C37.2305 10.1408 37.5254 10.1649 37.9431 10.189C38.2626 10.2131 38.5329 10.2131 38.8032 10.2372C39.4175 10.2853 39.9827 10.3094 40.4988 10.3576C41.0148 10.4058 41.58 10.454 42.1943 10.5022C42.8087 10.5503 43.3739 10.6226 43.8899 10.6708C44.4305 10.719 44.9957 10.7912 45.5855 10.8635C46.1261 10.9358 46.6913 11.0081 47.2565 11.0803C47.8954 11.1767 48.436 11.249 48.9274 11.3212C49.3943 11.3935 49.8612 11.4658 50.3281 11.5622L48.9766 12.4776L46.6421 14.0435L46.4947 14.1399L45.9295 14.5253L46.421 15.1517L48.1657 17.344L49.2223 18.669C48.7309 18.5726 48.2394 18.5003 47.7725 18.4281C47.1827 18.3317 46.6667 18.2594 46.1998 18.1872C45.7083 18.1149 45.1923 18.0426 44.6271 17.9703C44.1356 17.8981 43.6196 17.8499 43.0544 17.7776C42.4892 17.7053 41.9486 17.6572 41.4817 17.609C41.0148 17.5608 40.4742 17.5126 39.909 17.4644C39.3438 17.4162 38.8278 17.3922 38.3363 17.344C37.8694 17.3199 37.3288 17.2958 36.7636 17.2717L36.4196 17.2476L34.6257 13.634L34.9452 13.0799ZM47.3056 12.2367L47.0599 12.2126C46.5438 12.1403 45.9786 12.0681 45.3889 11.9958C44.8728 11.9235 44.3076 11.8753 43.7179 11.8031C43.1035 11.7308 42.5629 11.6826 42.0469 11.6344C41.5309 11.5862 40.9657 11.5381 40.3759 11.4899C39.7861 11.4417 39.221 11.3935 38.7049 11.3694C38.3855 11.3453 38.1152 11.3453 37.8694 11.3212C37.7711 11.3212 37.5991 11.2972 37.378 11.2972L36.2722 13.1522C37.0339 13.1762 37.8203 13.2244 38.6066 13.2726C39.7124 13.3449 40.7937 13.4172 41.8995 13.5376C42.9315 13.634 43.939 13.7544 44.9711 13.8749L47.3056 12.2367ZM44.7745 14.9349C43.767 14.8144 42.7595 14.694 41.7766 14.5976C40.6954 14.5012 39.6141 14.4049 38.5329 14.3326C37.7711 14.2844 36.9848 14.2362 36.223 14.2122L37.1568 16.1635C37.55 16.1876 37.9677 16.2117 38.41 16.2358C38.9752 16.2599 39.5158 16.3081 40.0073 16.3562C40.4988 16.4044 41.0148 16.4285 41.6046 16.5008C42.1943 16.549 42.7104 16.6212 43.2018 16.6694C43.6933 16.7176 44.2339 16.7899 44.7991 16.8622C45.2906 16.9344 45.8312 17.0067 46.3964 17.079L46.5438 17.1031L44.7745 14.9349Z"
                        fill="white" />
                    <path
                        d="M48.2379 35.1952C49.1471 35.1952 49.9826 34.8339 50.5724 34.2557C51.1621 33.6775 51.5307 32.8584 51.5307 31.9671C51.5307 31.0757 51.1621 30.2566 50.5478 29.6784C49.958 29.1002 49.1225 28.7389 48.1887 28.7389H45.0188V35.2193L48.2379 35.1952ZM51.4078 35.0507C50.5969 35.8457 49.4911 36.3275 48.2625 36.3275H43.913V27.5825H48.2379C49.4911 27.5825 50.5969 28.0643 51.4078 28.8593C52.2188 29.6543 52.7348 30.7384 52.7348 31.943C52.7102 33.1716 52.2188 34.2557 51.4078 35.0507Z"
                        fill="white" />
                    <path d="M55.4383 27.5825V35.1952H62.7366V36.3275H54.2833V27.5825H55.4383Z" fill="white" />
                    <path
                        d="M65.0447 36.3276V33.4608L59.8843 27.5826L60.7689 26.8599L62.2679 28.5944L65.6099 32.4008L68.657 28.9317L70.4754 26.8599L71.3355 27.5826L66.1996 33.4608V36.3276H65.0447Z"
                        fill="white" />
                    <path
                        d="M2.11377 28.7151V31.3892H7.0776L9.2892 28.7151H2.11377ZM2.11377 32.5215V35.1956H9.2892L7.0776 32.5215H2.11377ZM0.983398 35.7738V31.9915V27.6069H11.722L8.10968 31.9674L11.722 36.3278H0.983398V35.7738Z"
                        fill="white" />
                    <path
                        d="M12.9515 36.3275V27.5825H22.1666L19.7092 31.943L22.1666 36.3034L21.1836 36.8816L18.7017 32.4971H14.1065V36.3034L12.9515 36.3275ZM14.1065 28.7148V31.3889H18.7017L20.2007 28.7148H14.1065Z"
                        fill="white" />
                    <path
                        d="M31.8692 36.3275H23.7108V27.5825H31.7217V28.7148H24.8658V31.3889H29.7067V32.5212H24.8658V35.1952H31.8692V36.3275Z"
                        fill="white" />
                    <path
                        d="M34.5233 31.3889H40.1752L39.5854 28.7148H34.5233V31.3889ZM40.4455 32.5212H34.5479V36.3275H33.3929V27.5825H40.5192L42.4605 36.3275L41.3301 36.5684L40.4455 32.5212Z"
                        fill="white" />
                </svg>