<svg width="6" height="9" viewBox="0 0 6 9" fill="none" xmlns="http://www.w3.org/2000/svg">
<path id="Vector" d="M0.846353 8.45406C0.799739 8.40761 0.762755 8.35242 0.737519 8.29164C0.712283 8.23087 0.699292 8.16571 0.699292 8.0999C0.699292 8.03409 0.712283 7.96893 0.737519 7.90816C0.76273 7.84744 0.799666 7.79229 0.846215 7.74587L0.846118 7.74597L0.987529 7.8874L0.846353 7.74573L0.846353 8.45406ZM0.846353 8.45406L0.987529 8.3124L0.846353 8.45406ZM5.1537 4.85406C5.20032 4.80761 5.2373 4.75242 5.26254 4.69164C5.28777 4.63086 5.30076 4.56571 5.30076 4.4999C5.30076 4.43409 5.28777 4.36893 5.26254 4.30816C5.2373 4.24738 5.20032 4.19218 5.1537 4.14573L1.55395 8.45382L1.41253 8.3124L1.5542 8.45357L5.1537 4.85406ZM5.1537 4.85406L5.01256 4.71243L5.15395 4.85382L5.1537 4.85406ZM4.09267 4.4999L4.2341 4.64131L4.37553 4.4999L4.2341 4.35849L4.09267 4.4999Z" fill="#A78B6B" stroke="#A78B6B" stroke-width="0.4"/>
</svg>
